<?xml version="1.0" encoding="utf-8"?>
<!-- Generator: Adobe Illustrator 15.1.0, SVG Export Plug-In . SVG Version: 6.00 Build 0)  -->
<!DOCTYPE svg PUBLIC "-//W3C//DTD SVG 1.1//EN" "http://www.w3.org/Graphics/SVG/1.1/DTD/svg11.dtd">
<svg version="1.1" id="Layer_1" xmlns="http://www.w3.org/2000/svg" xmlns:xlink="http://www.w3.org/1999/xlink" x="0px" y="0px"
	 width="102px" height="37.649px" viewBox="0 0 102 37.649" enable-background="new 0 0 102 37.649" xml:space="preserve">
<path fill-rule="evenodd" clip-rule="evenodd" d="M70.08,2.16c1.531-0.169,2.822,0.017,3.84,0.72c4.876,3.367,1.408,14.168-6,10.56
	C63.876,11.47,63.915,2.841,70.08,2.16z M70.08,12.72c6.357,0.625,5.938-11.111-0.72-9.12C65.184,4.849,66.204,12.338,70.08,12.72z"
	/>
<path fill-rule="evenodd" clip-rule="evenodd" d="M5.04,2.4c4.391-0.092,10.155-0.77,8.88,4.08c-0.202,0.769-0.713,1.233-1.68,1.68
	c1.862,0.618,1.299,3.66,1.92,5.52c-0.4,0-0.8,0-1.2,0c-1.119-0.481-0.409-2.792-0.96-3.84c-0.554-1.526-3.372-0.788-5.28-0.96
	c0,1.6,0,3.2,0,4.8c-0.56,0-1.12,0-1.68,0C5.04,9.92,5.04,6.16,5.04,2.4z M6.72,7.68c3.129,0.278,6.804-0.007,5.52-3.36
	C11.321,3.159,8.667,3.732,6.72,3.6C6.72,4.96,6.72,6.32,6.72,7.68z"/>
<path fill-rule="evenodd" clip-rule="evenodd" d="M16.08,2.4c1.267,0.006,2.838-0.008,4.32,0c1.283,0.007,2.97-0.407,3.6,0.48
	c0.012,1.245-1.772,0.684-2.88,0.72c-1.177,0.039-2.423-0.03-3.36,0c-0.554,0.726-0.084,2.475-0.24,3.6
	c1.922,0.158,4.478-0.318,6,0.24c0.049,2.369-3.939,0.701-5.76,1.2c-0.554,0.805-0.084,2.636-0.24,3.84
	c1.023,0.021,2.372-0.027,3.6,0c1.031,0.023,2.537-0.414,2.88,0.48c-0.275,1.288-2.212,0.712-3.6,0.72
	c-1.448,0.008-3.128-0.006-4.32,0C16.08,9.92,16.08,6.16,16.08,2.4z"/>
<path fill-rule="evenodd" clip-rule="evenodd" d="M30.72,2.4c1.296,3.824,2.775,7.465,4.32,11.04c-2.204,1.16-2.378-1.779-2.88-3.12
	c-1.52,0-3.04,0-4.56,0c-1.019,0.662-0.879,2.481-1.68,3.36c-0.48,0-0.96,0-1.44,0c1.375-3.825,2.972-7.428,4.32-11.28
	C29.44,2.4,30.08,2.4,30.72,2.4z M27.84,9.12c1.2,0,2.4,0,3.6,0c-0.435-1.965-0.981-3.819-1.92-5.28
	C29.207,5.847,28.238,7.198,27.84,9.12z"/>
<path fill-rule="evenodd" clip-rule="evenodd" d="M36.24,13.68c0-3.76,0-7.52,0-11.28c3.133-0.056,7.486-0.491,8.88,2.4
	c1.201,2.493,0.967,6.5-1.44,8.16C41.769,14.277,39.432,13.422,36.24,13.68z M37.68,12.48c8.479,2.452,8.661-11.412,0-8.88
	C37.68,6.56,37.68,9.52,37.68,12.48z"/>
<path fill-rule="evenodd" clip-rule="evenodd" d="M51.84,2.4c0.72,0,1.44,0,2.16,0c1.281,2.959,2.172,6.308,3.6,9.12
	c1.369-2.872,2.353-6.127,3.6-9.12c0.72,0,1.44,0,2.16,0c-0.137,2.685,0.18,6.097,0,9.12c-0.035,0.595,0.517,2.255-0.72,2.16
	c-1.167,0.205-0.686-1.328-0.72-1.92c-0.115-1.994,0.086-5.054,0-7.2c-1.218,2.067-1.838,4.77-2.88,7.2
	c-0.286,0.667-0.388,1.998-1.44,1.92c-1.062,0.064-1.166-1.28-1.44-1.92c-0.906-2.113-1.746-4.795-2.64-7.2
	c-0.595,1.77-0.027,4.951-0.24,7.44c-0.048,0.57,0.406,1.964-0.72,1.68c-1.236,0.096-0.685-1.522-0.72-2.16
	c-0.133-2.406,0.099-5.848,0-8.4C51.84,2.88,51.84,2.64,51.84,2.4z"/>
<path fill-rule="evenodd" clip-rule="evenodd" d="M78,2.4c2.774,0.542,6.412-1.028,8.16,0.72c1.214,1.214,1.138,4.259-0.96,5.04
	c1.818,0.662,1.213,3.746,1.92,5.52c-0.56,0-1.12,0-1.68,0c-0.422-1.418-0.048-3.632-0.96-4.56c-1.299-0.461-3.37-0.15-5.04-0.24
	c-0.157,1.523,0.316,3.677-0.24,4.8c-0.24,0-0.48,0-0.72,0c-0.896-0.303-0.461-1.647-0.48-2.4c-0.058-2.386,0.043-5.559,0-8.16
	C78,2.88,78,2.64,78,2.4z M79.68,7.68c3.568,0.666,7.306-0.889,5.04-3.84c-1.372-0.469-3.535-0.145-5.28-0.24
	C79.56,4.92,79.175,6.745,79.68,7.68z"/>
<path fill-rule="evenodd" clip-rule="evenodd" d="M96.72,2.88c0.038,1.233-1.575,0.676-2.64,0.72c-1.145,0.047-2.436-0.036-3.36,0
	c-0.554,0.726-0.085,2.475-0.24,3.6c1.862,0.377,5.296-0.817,6,0.72c-0.633,1.527-3.971,0.349-5.76,0.72
	c-0.555,0.805-0.084,2.636-0.24,3.84c1.023,0.021,2.372-0.027,3.6,0c1.031,0.023,2.537-0.414,2.88,0.48
	c-0.107,1.254-2.457,0.72-3.84,0.72c-1.472,0-3.129,0-4.32,0c0-3.76,0-7.52,0-11.28c0.16,0,0.32,0,0.48,0
	c1.186,0.017,2.688-0.022,4.08,0C94.564,2.419,96.19,1.985,96.72,2.88z"/>
<path fill-rule="evenodd" clip-rule="evenodd" d="M0,14.64c34,0,68,0,102,0c0,1.04,0,2.08,0,3.12c-34,0-68,0-102,0
	C0,16.72,0,15.68,0,14.64z"/>
<path fill-rule="evenodd" clip-rule="evenodd" d="M51.36,37.68c-0.24,0-0.48,0-0.72,0C36.236,31.284,21.207,25.514,6.72,19.2
	l0.36-0.28l-0.12-0.44c29.36,0,58.721,0,88.08,0l-0.12,0.44l0.36,0.28C80.875,25.596,65.847,31.366,51.36,37.68z"/>
<g>
	<path fill-rule="evenodd" clip-rule="evenodd" fill="none" stroke="#000000" stroke-width="0.635" stroke-linecap="round" d="
		M6,18.72c0.27,0.01,0.693,0.106,1.08,0.2"/>
	<path fill-rule="evenodd" clip-rule="evenodd" fill="none" stroke="#000000" stroke-width="0.7143" stroke-linecap="round" d="
		M94.92,18.92c0.32-0.053,0.64-0.089,0.96-0.2"/>
</g>
</svg>
